<svg height="9" viewBox="0 0 9 9" width="9" xmlns="http://www.w3.org/2000/svg"><path d="m5.26464855 1.08848914c1.88964855 1.18289273 3.6 3.04054613 3.6457029 3.12468506.08964855.0857886.08964855.1699271.08964855.29696054 0 .08413851-.0457029.21117195-.08964855.29531045-.0457029.08413893-1.8 1.94179233-3.6457029 3.12468506-.13535145.08413893-.31464855.08413893-.4939452.04289409-.1353519-.0841385-.27070335-.21117194-.27070335-.38109905v-1.56234253s-3.91464855-.21117194-4.0957029-.33820496c-.225-.25241678-.4042971-.75889917-.4042971-1.22413757 0-.46523798.1792971-.9288267.4042971-1.09875381.18105435-.08413892 4.0957029-.37944979 4.0957029-.37944979v-1.56234253c0-.16992711.08964855-.29531045.27070335-.38109905.13359375-.08413893.3146481-.04124484.4939452.04289409z" fill="#111"/></svg>