<svg height="32" viewBox="0 0 32 32" width="32" xmlns="http://www.w3.org/2000/svg"><path d="m19.4573959 28v-8.7174423h2.9562174l.4413971-3.3144085h-3.3976145v-2.146474c0-.9785397.2656953-1.6414214 1.6855939-1.6414214h1.8570102v-3.05399062c-.313549-.03945724-1.4106135-.12626318-2.6605242-.12626318-2.6105279 0-4.3746876 1.5861812-4.3746876 4.46656v2.5015892h-2.9647882v3.3144085h2.964074l-.0057666 8.7174423h-9.9583074c-1.09375 0-2-.90625-2-2v-20c0-1.09375.90625-2 2-2h20c1.09375 0 2 .90625 2 2v20c0 1.09375-.90625 2-2 2z" fill="#fff"/></svg>