<svg height="32" viewBox="0 0 32 32" width="32" xmlns="http://www.w3.org/2000/svg"><path d="m4 10.92569c0-3.82495296 3.10070253-6.92569 6.92569-6.92569h10.14862c3.824953 0 6.92569 3.10070253 6.92569 6.92569v10.14862c0 3.824953-3.1007025 6.92569-6.92569 6.92569h-10.14862c-3.82495296 0-6.92569-3.1007025-6.92569-6.92569zm2.17241379.2065537v9.7355126c0 2.7433388 2.2205915 4.9598299 4.95982991 4.9598299h9.7355126c2.7433388 0 4.9598299-2.2205915 4.9598299-4.9598299v-9.7355126c0-2.74333884-2.2205915-4.95982991-4.9598299-4.95982991h-9.7355126c-2.74333884 0-4.95982991 2.2205915-4.95982991 4.95982991zm9.82758621 10.9712046c-3.3708414 0-6.10344828-2.7326069-6.10344828-6.1034483s2.73260688-6.10344828 6.10344828-6.10344828 6.1034483 2.73260688 6.1034483 6.10344828-2.7326069 6.1034483-6.1034483 6.1034483zm0-2.1724138c2.1710504 0 3.9310345-1.7599841 3.9310345-3.9310345s-1.7599841-3.9310345-3.9310345-3.9310345-3.9310345 1.7599841-3.9310345 3.9310345 1.7599841 3.9310345 3.9310345 3.9310345zm6.3103448-8.8965517c-.7998606 0-1.4482758-.6484152-1.4482758-1.4482759 0-.79986068.6484152-1.44827587 1.4482758-1.44827587.7998607 0 1.4482759.64841519 1.4482759 1.44827587 0 .7998607-.6484152 1.4482759-1.4482759 1.4482759z" fill="#fff" fill-rule="evenodd"/></svg>