<svg height="32" viewBox="0 0 32 32" width="32" xmlns="http://www.w3.org/2000/svg"><path d="m16 4c-6.628906 0-12 5.371094-12 12 0 5.085938 3.164063 9.425781 7.628906 11.175781-.105468-.949218-.203125-2.40625.039063-3.445312.21875-.933594 1.40625-5.964844 1.40625-5.964844s-.355469-.71875-.355469-1.78125c0-1.667969.964844-2.914062 2.167969-2.914062 1.023437 0 1.519531.769531 1.519531 1.691406 0 1.03125-.65625 2.570312-.996094 3.996094-.28125 1.195312.601563 2.167968 1.777344 2.167968 2.132813 0 3.773438-2.25 3.773438-5.496093 0-2.871094-2.0625-4.878907-5.011719-4.878907-3.414063 0-5.417969 2.558594-5.417969 5.207032 0 1.03125.398438 2.136718.894531 2.738281.097657.117187.109375.222656.082032.34375-.09375.378906-.292969 1.195312-.332032 1.359375-.054687.222656-.175781.269531-.402343.160156-1.5-.695312-2.4375-2.886719-2.4375-4.648437 0-3.785157 2.75-7.261719 7.929687-7.261719 4.164063 0 7.398438 2.964844 7.398438 6.933594 0 4.132812-2.609375 7.460937-6.226563 7.460937-1.214844 0-2.359375-.628906-2.75-1.375 0 0-.601562 2.289063-.75 2.851563-.269531 1.042968-1 2.347656-1.492187 3.144531 1.125.347656 2.316406.535156 3.554687.535156 6.628906 0 12-5.371094 12-12s-5.371094-12-12-12z" fill="#fff"/></svg>