<svg height="32" viewBox="0 0 32 32" width="32" xmlns="http://www.w3.org/2000/svg"><path d="m28 8.313c-.883.39-1.832.656-2.828.773 1.016-.609 1.797-1.574 2.164-2.723-.949.563-2.004.973-3.125 1.196-.899-.957-2.18-1.559-3.594-1.559-2.719 0-4.926 2.207-4.926 4.926 0 .387.043.762.129 1.121-4.093-.203-7.722-2.164-10.148-5.145-.426.727-.668 1.575-.668 2.477 0 1.707.867 3.215 2.191 4.098-.808-.028-1.566-.246-2.23-.618v.063c0 2.387 1.695 4.379 3.949 4.828-.414.113-.848.176-1.297.176-.316 0-.629-.031-.926-.09.625 1.957 2.446 3.379 4.598 3.422-1.684 1.32-3.809 2.105-6.113 2.105-.399 0-.789-.023-1.176-.07 2.18 1.399 4.766 2.215 7.547 2.215 9.058 0 14.012-7.504 14.012-14.012 0-.211-.008-.426-.016-.637.961-.695 1.797-1.562 2.457-2.546z" fill="#fff" fill-rule="evenodd"/></svg>