<svg height="32" viewBox="0 0 32 32" width="32" xmlns="http://www.w3.org/2000/svg"><path d="m16 6c3.766 0 7.094.391 9.125.688 1.68.246 3.035 1.511 3.344 3.187.265 1.43.531 3.52.531 6.125s-.27 4.695-.531 6.125c-.309 1.676-1.664 2.945-3.344 3.187-2.039.297-5.379.688-9.125.688s-7.086-.391-9.125-.688c-1.68-.242-3.035-1.511-3.344-3.187-.261-1.426-.531-3.512-.531-6.125s.27-4.699.531-6.125c.309-1.676 1.664-2.941 3.344-3.187 2.031-.297 5.359-.688 9.125-.688zm-3 4.281v11.438l1.5-.844 7-4 1.5-.875-1.5-.875-7-4z" fill="#fff" fill-rule="evenodd"/></svg>